<?xml version="1.0" encoding="UTF-8" standalone="no"?>
<svg
   xmlns:dc="http://purl.org/dc/elements/1.1/"
   xmlns:cc="http://creativecommons.org/ns#"
   xmlns:rdf="http://www.w3.org/1999/02/22-rdf-syntax-ns#"
   xmlns:svg="http://www.w3.org/2000/svg"
   xmlns="http://www.w3.org/2000/svg"
   xmlns:sodipodi="http://sodipodi.sourceforge.net/DTD/sodipodi-0.dtd"
   xmlns:inkscape="http://www.inkscape.org/namespaces/inkscape"
   width="619.62537mm"
   height="350.50635mm"
   viewBox="0 0 619.62537 350.50634"
   version="1.1"
   id="svg8"
   inkscape:version="1.0.2-2 (e86c870879, 2021-01-15)"
   sodipodi:docname="Logo_Adams_Electric.svg">
  <defs
     id="defs2" />
  <sodipodi:namedview
     id="base"
     pagecolor="#ffffff"
     bordercolor="#666666"
     borderopacity="1.0"
     inkscape:pageopacity="0.0"
     inkscape:pageshadow="2"
     inkscape:zoom="0.49497475"
     inkscape:cx="1218.4104"
     inkscape:cy="738.00419"
     inkscape:document-units="mm"
     inkscape:current-layer="layer1"
     inkscape:document-rotation="0"
     showgrid="false"
     inkscape:snap-intersection-paths="true"
     inkscape:snap-smooth-nodes="true"
     inkscape:object-paths="true"
     showguides="true"
     inkscape:guide-bbox="true"
     inkscape:window-width="1920"
     inkscape:window-height="1017"
     inkscape:window-x="-8"
     inkscape:window-y="-8"
     inkscape:window-maximized="1" />
  <metadata
     id="metadata5">
    <rdf:RDF>
      <cc:Work
         rdf:about="">
        <dc:format>image/svg+xml</dc:format>
        <dc:type
           rdf:resource="http://purl.org/dc/dcmitype/StillImage" />
        <dc:title />
      </cc:Work>
    </rdf:RDF>
  </metadata>
  <g
     inkscape:label="Layer 1"
     inkscape:groupmode="layer"
     id="layer1"
     transform="translate(246.94085,101.79795)">
    <g
       aria-label="ADAMS"
       id="text835"
       style="font-style:italic;font-variant:normal;font-weight:normal;font-stretch:normal;font-size:63.6322px;line-height:1.25;font-family:Sofachrome;-inkscape-font-specification:'Sofachrome, Italic';font-variant-ligatures:normal;font-variant-caps:normal;font-variant-numeric:normal;font-variant-east-asian:normal;fill:#000000;fill-opacity:1;stroke:none;stroke-width:1.5908"
       inkscape:export-xdpi="40"
       inkscape:export-ydpi="40"
       transform="matrix(0.3237149,0,0,0.3237149,52.992363,47.426748)"
       inkscape:export-filename="C:\Users\mrjos\Desktop\Dad's Website\Adams_Electric\images\Logo_Adams_Electric_5.png">
      <g
         id="g861"
         style="fill:#bc0c1e;fill-opacity:1">
        <path
           d="m -46.742748,59.777962 c 1.399908,0 2.03623,-0.699954 2.03623,-1.463541 0,-0.254529 -0.06363,-0.509057 -0.127264,-0.763586 L -66.341465,17.589814 c -0.445426,-0.763586 -1.081748,-1.209012 -2.290759,-1.209012 h -4.136093 c -1.081748,0 -2.099863,0.445426 -3.245242,1.209012 L -133.7916,57.678099 c -0.63632,0.445426 -1.01811,0.890851 -1.01811,1.336276 0,0.509058 0.25453,0.763587 0.82722,0.763587 h 42.442674 c 1.081748,0 1.908966,-0.57269 2.418024,-1.71807 l 1.781701,-4.07246 c 0.190897,-0.318161 0.254529,-0.699954 0.254529,-0.890851 0,-0.509058 -0.318161,-0.827219 -1.14538,-0.827219 h -28.889018 l 28.0618,-19.280556 13.235497,25.516512 c 0.509058,0.827218 1.336276,1.272644 2.736185,1.272644 z"
           style="font-style:italic;font-variant:normal;font-weight:normal;font-stretch:normal;font-size:63.6322px;font-family:Sofachrome;-inkscape-font-specification:'Sofachrome, Italic';font-variant-ligatures:normal;font-variant-caps:normal;font-variant-numeric:normal;font-variant-east-asian:normal;fill:#bc0c1e;fill-opacity:1;stroke-width:1.5908"
           id="path845" />
        <path
           d="m 10.144409,59.777962 c 16.035314,0 32.961479,-14.317245 32.961479,-29.843501 0,-7.826761 -4.708783,-13.553659 -13.617291,-13.553659 H -21.67169 c -1.14538,0 -1.908966,0.57269 -2.418024,1.654438 l -17.880648,40.024652 c -0.127264,0.381794 -0.190896,0.636322 -0.190896,0.954483 0,0.509058 0.381793,0.763587 1.145379,0.763587 z m 1.145379,-19.08966 C 7.4082244,49.278649 3.8448213,52.269362 -1.2457546,52.269362 H -14.099459 L -1.5002834,23.82577 H 11.417053 c 3.245242,0 4.963311,0.827218 4.963311,3.245242 0,1.46354 -0.699954,3.690667 -2.03623,6.681381 z"
           style="font-style:italic;font-variant:normal;font-weight:normal;font-stretch:normal;font-size:63.6322px;font-family:Sofachrome;-inkscape-font-specification:'Sofachrome, Italic';font-variant-ligatures:normal;font-variant-caps:normal;font-variant-numeric:normal;font-variant-east-asian:normal;fill:#bc0c1e;fill-opacity:1;stroke-width:1.5908"
           id="path847" />
        <path
           d="m 117.87362,59.777962 c 1.3999,0 2.03623,-0.699954 2.03623,-1.463541 0,-0.254529 -0.0636,-0.509057 -0.12727,-0.763586 L 98.274898,17.589814 c -0.445425,-0.763586 -1.081747,-1.209012 -2.290759,-1.209012 h -4.136093 c -1.081747,0 -2.099862,0.445426 -3.245242,1.209012 L 30.824768,57.678099 c -0.636322,0.445426 -1.018115,0.890851 -1.018115,1.336276 0,0.509058 0.254529,0.763587 0.827218,0.763587 h 42.442677 c 1.081747,0 1.908966,-0.57269 2.418023,-1.71807 l 1.781702,-4.07246 c 0.190896,-0.318161 0.254529,-0.699954 0.254529,-0.890851 0,-0.509058 -0.318161,-0.827219 -1.14538,-0.827219 H 47.496404 L 75.558203,32.988806 88.793701,58.505318 c 0.509057,0.827218 1.336276,1.272644 2.736184,1.272644 z"
           style="font-style:italic;font-variant:normal;font-weight:normal;font-stretch:normal;font-size:63.6322px;font-family:Sofachrome;-inkscape-font-specification:'Sofachrome, Italic';font-variant-ligatures:normal;font-variant-caps:normal;font-variant-numeric:normal;font-variant-east-asian:normal;fill:#bc0c1e;fill-opacity:1;stroke-width:1.5908"
           id="path849" />
        <path
           d="m 204.8588,59.777962 c 1.14538,0 1.90897,-0.57269 2.41803,-1.71807 L 225.15747,18.03524 c 0.1909,-0.318161 0.1909,-0.57269 0.1909,-0.827219 0,-0.57269 -0.38179,-0.827219 -1.14538,-0.827219 h -5.09058 c -1.52717,0 -3.3725,0.57269 -5.21784,1.654438 L 169.98836,45.015292 152.17134,18.03524 c -0.76358,-1.081748 -1.9726,-1.654438 -3.30887,-1.654438 h -5.02695 c -1.14538,0 -1.97259,0.57269 -2.48165,1.654438 l -17.81702,40.024652 c -0.19089,0.381794 -0.25453,0.636322 -0.25453,0.954483 0,0.509058 0.3818,0.763587 1.20902,0.763587 h 5.91779 c 1.14538,0 1.9726,-0.57269 2.48166,-1.71807 l 7.19043,-16.098946 12.91734,16.098946 c 0.95448,1.209012 2.22713,1.71807 3.49977,1.71807 h 3.69067 c 1.27264,0 2.86345,-0.509058 4.70878,-1.71807 l 25.13472,-16.098946 -7.25407,16.098946 c -0.12726,0.381794 -0.1909,0.636322 -0.1909,0.954483 0,0.509058 0.3818,0.763587 1.20901,0.763587 z"
           style="font-style:italic;font-variant:normal;font-weight:normal;font-stretch:normal;font-size:63.6322px;font-family:Sofachrome;-inkscape-font-specification:'Sofachrome, Italic';font-variant-ligatures:normal;font-variant-caps:normal;font-variant-numeric:normal;font-variant-east-asian:normal;fill:#bc0c1e;fill-opacity:1;stroke-width:1.5908"
           id="path851" />
        <path
           d="m 261.87317,59.777962 c 10.69021,0 18.45334,-7.699496 18.45334,-14.889935 0,-2.481655 -1.08175,-5.21784 -4.96332,-7.444967 L 251.75565,23.82577 h 35.25224 c 1.08174,0 1.9726,-0.57269 2.48165,-1.71807 l 1.7817,-4.07246 c 0.1909,-0.318161 0.25453,-0.57269 0.25453,-0.827219 0,-0.57269 -0.38179,-0.827219 -1.20901,-0.827219 h -46.89693 c -10.56294,0 -18.45334,7.699496 -18.45334,14.889935 0,2.545288 1.20902,5.21784 4.96332,7.381335 l 23.60754,13.61729 h -36.33398 c -1.14538,0 -1.9726,0.57269 -2.48166,1.71807 l -1.84533,4.07246 c -0.12727,0.381794 -0.1909,0.636322 -0.1909,0.954483 0,0.509058 0.38179,0.763587 1.14538,0.763587 z"
           style="font-style:italic;font-variant:normal;font-weight:normal;font-stretch:normal;font-size:63.6322px;font-family:Sofachrome;-inkscape-font-specification:'Sofachrome, Italic';font-variant-ligatures:normal;font-variant-caps:normal;font-variant-numeric:normal;font-variant-east-asian:normal;fill:#bc0c1e;fill-opacity:1;stroke-width:1.5908"
           id="path853" />
      </g>
    </g>
    <text
       xml:space="preserve"
       style="font-style:normal;font-variant:normal;font-weight:normal;font-stretch:normal;font-size:24.8997px;line-height:1.25;font-family:'MS PGothic';-inkscape-font-specification:'MS PGothic, Normal';font-variant-ligatures:normal;font-variant-caps:normal;font-variant-numeric:normal;font-variant-east-asian:normal;fill:#000000;fill-opacity:1;stroke:none;stroke-width:0.622494"
       x="7.5495996"
       y="87.624474"
       id="text839"
       inkscape:export-xdpi="40"
       inkscape:export-ydpi="40"
       inkscape:export-filename="C:\Users\mrjos\Desktop\Dad's Website\Adams_Electric\images\Logo_Adams_Electric_5.png"><tspan
         sodipodi:role="line"
         id="tspan837"
         x="7.5495996"
         y="87.624474"
         style="font-style:normal;font-variant:normal;font-weight:normal;font-stretch:normal;font-size:24.8997px;font-family:'MS PGothic';-inkscape-font-specification:'MS PGothic, Normal';font-variant-ligatures:normal;font-variant-caps:normal;font-variant-numeric:normal;font-variant-east-asian:normal;stroke-width:0.622494">ELECTRICAL</tspan></text>
  </g>
</svg>
