<?xml version="1.0" encoding="UTF-8" standalone="no"?>
<svg
   xmlns:dc="http://purl.org/dc/elements/1.1/"
   xmlns:cc="http://creativecommons.org/ns#"
   xmlns:rdf="http://www.w3.org/1999/02/22-rdf-syntax-ns#"
   xmlns:svg="http://www.w3.org/2000/svg"
   xmlns="http://www.w3.org/2000/svg"
   xmlns:sodipodi="http://sodipodi.sourceforge.net/DTD/sodipodi-0.dtd"
   xmlns:inkscape="http://www.inkscape.org/namespaces/inkscape"
   width="210mm"
   height="297mm"
   viewBox="0 0 210 297"
   version="1.1"
   id="svg8"
   inkscape:version="1.0.2-2 (e86c870879, 2021-01-15)"
   sodipodi:docname="Social Icons.svg">
  <defs
     id="defs2" />
  <sodipodi:namedview
     id="base"
     pagecolor="#ffffff"
     bordercolor="#666666"
     borderopacity="1.0"
     inkscape:pageopacity="0.0"
     inkscape:pageshadow="2"
     inkscape:zoom="0.98994949"
     inkscape:cx="434.94562"
     inkscape:cy="762.72483"
     inkscape:document-units="mm"
     inkscape:current-layer="layer1"
     inkscape:document-rotation="0"
     showgrid="false"
     inkscape:window-width="1920"
     inkscape:window-height="1017"
     inkscape:window-x="-8"
     inkscape:window-y="-8"
     inkscape:window-maximized="1" />
  <metadata
     id="metadata5">
    <rdf:RDF>
      <cc:Work
         rdf:about="">
        <dc:format>image/svg+xml</dc:format>
        <dc:type
           rdf:resource="http://purl.org/dc/dcmitype/StillImage" />
        <dc:title />
      </cc:Work>
    </rdf:RDF>
  </metadata>
  <g
     inkscape:label="Layer 1"
     inkscape:groupmode="layer"
     id="layer1">
    <path
       style="fill:#000000;stroke-width:1"
       id="path931"
       d="" />
    <rect
       style="fill:#bc0c1e;stroke:none;stroke-width:4.99998;fill-opacity:1"
       id="rect919"
       width="39.309517"
       height="39.309517"
       x="34.295906"
       y="120.95238"
       inkscape:export-xdpi="40"
       inkscape:export-ydpi="40"
       inkscape:export-filename="C:\Users\mrjos\Desktop\Desktop 2\Dad's Website\Adams_Electric\images\icons\facebook2.png" />
    <rect
       style="fill:#bc0c1e;stroke:none;stroke-width:4.99998;fill-opacity:1"
       id="rect921"
       width="39.309517"
       height="39.309517"
       x="86.934517"
       y="120.95238"
       inkscape:export-xdpi="40"
       inkscape:export-ydpi="40"
       inkscape:export-filename="C:\Users\mrjos\Desktop\Desktop 2\Dad's Website\Adams_Electric\images\icons\instagram2.png" />
    <rect
       style="fill:#bc0c1e;stroke:none;stroke-width:4.99998;fill-opacity:1"
       id="rect923"
       width="39.309517"
       height="39.309517"
       x="139.57312"
       y="120.95238"
       inkscape:export-xdpi="40"
       inkscape:export-ydpi="40"
       inkscape:export-filename="C:\Users\mrjos\Desktop\Desktop 2\Dad's Website\Adams_Electric\images\icons\twitter2.png" />
    <path
       style="fill:#ffffff;stroke-width:0.999999"
       d="m 152.91073,153.43698 c -0.0668,-0.002 -0.25938,-0.0104 -0.42804,-0.018 -2.82903,-0.12734 -5.63689,-0.93137 -8.12003,-2.32516 -0.35056,-0.19677 -0.92759,-0.54653 -0.91752,-0.55613 0.002,-0.002 0.076,0.004 0.16411,0.0139 0.75073,0.0827 1.73375,0.092 2.5103,0.0237 2.13816,-0.18809 4.19014,-0.89846 5.98441,-2.07175 0.26792,-0.1752 0.41306,-0.27697 0.69634,-0.48826 l 0.21539,-0.16066 -0.14512,-0.009 c -0.41566,-0.0254 -0.73946,-0.0669 -1.07147,-0.13741 -2.0849,-0.44258 -3.82661,-1.88712 -4.64355,-3.85126 -0.088,-0.21161 -0.19011,-0.49416 -0.18162,-0.50265 0.003,-0.003 0.0994,0.009 0.21436,0.0271 0.3694,0.0574 0.60154,0.0748 1.00119,0.075 0.45977,1.5e-4 0.74198,-0.0243 1.16275,-0.10092 0.22669,-0.0413 0.5047,-0.10654 0.5047,-0.1185 0,-0.005 -0.0589,-0.0222 -0.13096,-0.0383 -1.00772,-0.22401 -1.98141,-0.71844 -2.79506,-1.41929 -0.28766,-0.24778 -0.64316,-0.62374 -0.88375,-0.93462 -0.8368,-1.08126 -1.30702,-2.39231 -1.34799,-3.75845 -0.005,-0.15285 -0.004,-0.27791 1.5e-4,-0.27791 0.005,0 0.11264,0.0521 0.23987,0.1158 0.6905,0.34565 1.38849,0.55511 2.14499,0.64367 0.16832,0.0197 0.52664,0.0462 0.53391,0.0394 0.002,-0.002 -0.0629,-0.0504 -0.1442,-0.10786 -1.10749,-0.7826 -1.94997,-1.9211 -2.38353,-3.22098 -0.23331,-0.69952 -0.33605,-1.33551 -0.33542,-2.07633 7.5e-4,-0.83231 0.14319,-1.58551 0.44715,-2.36381 0.0727,-0.18618 0.36643,-0.79574 0.40842,-0.84759 l 0.0241,-0.0297 0.14654,0.17673 c 0.42936,0.5178 1.01113,1.13414 1.53809,1.62948 2.97364,2.79524 6.80983,4.52283 10.88768,4.90317 0.35052,0.0327 0.75796,0.0585 0.76783,0.0486 0.004,-0.004 -0.004,-0.0642 -0.019,-0.13322 -0.0902,-0.4217 -0.13192,-0.83486 -0.13251,-1.3137 -4.5e-4,-0.36865 0.0121,-0.56751 0.0562,-0.88803 0.23792,-1.73153 1.16295,-3.29413 2.56659,-4.33557 0.55417,-0.41118 1.20675,-0.74755 1.85914,-0.95831 1.62505,-0.52499 3.38529,-0.39115 4.91291,0.37356 0.60585,0.30328 1.12226,0.67214 1.62236,1.15881 l 0.19841,0.1931 0.22361,-0.0483 c 1.317,-0.28442 2.64443,-0.79864 3.78774,-1.46729 0.0488,-0.0285 0.0906,-0.05 0.093,-0.0476 0.008,0.008 -0.0998,0.30212 -0.18272,0.50161 -0.51027,1.22681 -1.4176,2.29944 -2.53839,3.00081 -0.0544,0.0341 -0.0974,0.0635 -0.0954,0.0654 0.002,0.002 0.084,-0.007 0.18228,-0.0204 1.10252,-0.14712 2.21796,-0.45004 3.25458,-0.88385 0.13187,-0.0552 0.24293,-0.10034 0.24681,-0.10034 0.0133,0 -0.21506,0.32583 -0.41636,0.59415 -0.66425,0.88537 -1.45137,1.69337 -2.33668,2.39867 -0.12215,0.0973 -0.27545,0.21553 -0.34067,0.2627 l -0.11859,0.0858 0.007,0.53665 c 0.0175,1.34337 -0.0985,2.57557 -0.36694,3.89585 -0.64786,3.1868 -2.12865,6.22547 -4.22185,8.66352 -0.42844,0.49903 -1.10645,1.19673 -1.56638,1.61189 -2.38796,2.15549 -5.19651,3.56515 -8.37162,4.20188 -0.91166,0.18282 -1.78998,0.2919 -2.84053,0.35278 -0.22867,0.0133 -1.29502,0.0253 -1.5269,0.0172 z"
       id="path933"
       inkscape:export-xdpi="40"
       inkscape:export-ydpi="40"
       inkscape:export-filename="C:\Users\mrjos\Desktop\Desktop 2\Dad's Website\Adams_Electric\images\icons\twitter2.png" />
    <path
       style="fill:#ffffff;stroke-width:0.999999"
       d="m 101.51103,154.934 c -0.78595,-0.0268 -2.038936,-0.13407 -2.485656,-0.21277 -1.8655,-0.32865 -3.24873,-1.02347 -4.42938,-2.22495 -1.25277,-1.27487 -1.96379,-2.90539 -2.1993,-5.04344 -0.13311,-1.20834 -0.1835,-3.87208 -0.1555,-8.22045 0.0323,-5.01327 0.0681,-5.62852 0.40698,-6.98599 0.74219,-2.97317 2.94403,-5.0502 6.00113,-5.66095 0.83702,-0.16723 1.458976,-0.22307 3.254516,-0.29221 1.9712,-0.0759 10.19447,-0.035 11.11024,0.0553 2.54839,0.25118 4.16112,0.93744 5.56835,2.3695 1.25963,1.28186 1.97902,2.94021 2.19999,5.07149 0.13463,1.29851 0.18293,3.85719 0.15465,8.1924 -0.0327,5.01431 -0.0686,5.63128 -0.40682,6.98599 -0.74328,2.97751 -2.93663,5.0465 -6.00114,5.66088 -1.37225,0.27511 -3.12463,0.34346 -8.47296,0.33049 -2.25291,-0.005 -4.2982,-0.0168 -4.5451,-0.0253 z m 10.94191,-2.65271 c 0.99722,-0.0747 1.44538,-0.14371 2.07615,-0.31957 0.94621,-0.2638 1.68717,-0.71145 2.33125,-1.40844 0.84741,-0.91699 1.23394,-1.96591 1.41135,-3.8299 0.10225,-1.07436 0.0997,-10.45137 -0.003,-11.86552 -0.11458,-1.57399 -0.27616,-2.3084 -0.69148,-3.14271 -0.2923,-0.58719 -0.52414,-0.89557 -1.02182,-1.35911 -0.92952,-0.86574 -1.97058,-1.25279 -3.84968,-1.43123 -1.07399,-0.10198 -10.45243,-0.0994 -11.86553,0.003 -1.573536,0.11432 -2.308216,0.27594 -3.142696,0.69134 -0.5872,0.29229 -0.89557,0.52414 -1.3591,1.02182 -0.86574,0.9295 -1.25276,1.97047 -1.43125,3.84968 -0.0526,0.55336 -0.0716,2.12607 -0.0705,5.83568 0.002,5.94185 0.047,6.92938 0.37277,8.13628 0.23892,0.88506 0.59813,1.55008 1.15763,2.14318 1.12399,1.1915 2.37532,1.61946 5.057366,1.72968 1.48818,0.0611 10.05027,0.0189 11.02879,-0.0544 z m -7.14671,-4.41354 c -0.91693,-0.15371 -1.96801,-0.57919 -2.84129,-1.15015 -0.5973,-0.39053 -1.60636,-1.40534 -2.00286,-2.01426 -0.42261,-0.64902 -0.617486,-1.04994 -0.854086,-1.75711 -0.25994,-0.77694 -0.36906,-1.46852 -0.36906,-2.33909 0,-2.04036 0.70763,-3.74546 2.155896,-5.19486 0.89157,-0.89227 1.68624,-1.3912 2.83765,-1.78161 0.79006,-0.26789 1.45039,-0.3739 2.32866,-0.37384 2.07041,1.1e-4 3.7658,0.69996 5.22291,2.15594 0.89515,0.89444 1.39966,1.69948 1.78289,2.84494 0.2685,0.8025 0.37263,1.45128 0.37256,2.32137 -10e-5,2.07042 -0.69995,3.7658 -2.15593,5.22291 -0.61921,0.6197 -1.22222,1.06498 -1.91515,1.41421 -0.50168,0.25284 -1.46801,0.56121 -2.05903,0.65706 -0.63946,0.10371 -1.86776,0.10101 -2.50316,-0.005 z m 2.22522,-2.57972 c 2.23456,-0.45809 3.8273,-2.40604 3.8273,-4.68089 0,-3.81334 -4.25045,-6.07643 -7.43398,-3.95813 -2.18177,1.45174 -2.76108,4.41727 -1.2937,6.62255 1.05518,1.5858 3.03238,2.39939 4.90038,2.01647 z m 6.33745,-10.68681 c -1.00552,-0.25137 -1.57401,-1.2873 -1.24167,-2.26264 0.12352,-0.36252 0.56263,-0.83093 0.92512,-0.98687 0.88752,-0.3818 1.95847,0.0752 2.2938,0.97886 0.39219,1.05687 -0.33286,2.19589 -1.46177,2.29639 -0.1673,0.0149 -0.39927,0.003 -0.51548,-0.0258 z"
       id="path929"
       inkscape:export-xdpi="40"
       inkscape:export-ydpi="40"
       inkscape:export-filename="C:\Users\mrjos\Desktop\Desktop 2\Dad's Website\Adams_Electric\images\icons\instagram2.png" />
    <path
       style="fill:#ffffff;stroke-width:0.999996"
       d="m 43.293224,155.12247 c -1.56097,-0.21079 -2.76748,-1.06059 -3.47512,-2.44767 -0.0652,-0.12773 -0.1883,-0.48193 -0.27364,-0.78711 l -0.15517,-0.55488 v -10.74293 -10.74292 l 0.15517,-0.55488 c 0.23641,-0.84541 0.55247,-1.39745 1.13171,-1.97669 0.57924,-0.57924 1.13128,-0.8953 1.97669,-1.13171 l 0.55487,-0.15516 h 10.74293 10.74293 l 0.48443,0.13203 c 1.65758,0.45179 2.75019,1.5444 3.20198,3.20198 l 0.13203,0.48443 v 10.74292 10.74293 l -0.13203,0.48443 c -0.44336,1.62664 -1.50602,2.71234 -3.11019,3.17761 l -0.51923,0.1506 -4.26012,0.0202 -4.26013,0.0201 v -5.16075 -5.16075 h 1.70975 c 0.94036,0 1.70975,-0.0148 1.70975,-0.0328 0,-0.0181 0.0631,-0.422 0.1402,-0.89762 0.2586,-1.59505 0.4261,-2.68596 0.46311,-3.0162 l 0.0367,-0.3277 h -2.0344 -2.03441 l 0.0214,-1.61002 c 0.0202,-1.51893 0.0291,-1.63214 0.15727,-2.00123 0.17989,-0.51803 0.5489,-0.92697 1.03928,-1.15173 0.35502,-0.16272 0.37179,-0.16463 1.69787,-0.19407 l 1.33931,-0.0297 0.0151,-1.81096 c 0.0118,-1.4192 -3e-4,-1.81635 -0.057,-1.83588 -0.29314,-0.10134 -1.47913,-0.21138 -2.57968,-0.23937 -1.44966,-0.0368 -1.98634,0.01 -2.65501,0.23113 -0.947,0.31337 -1.43851,0.61094 -2.0753,1.25643 -0.5206,0.52772 -0.875,1.10655 -1.11528,1.82159 -0.3166,0.94216 -0.338,1.1608 -0.338,3.45274 v 2.11109 h -1.85223 -1.85223 v 2.13719 2.13719 h 1.85223 1.85223 v 5.15774 5.15775 l -4.03216,-0.007 c -2.21769,-0.004 -4.17322,-0.0265 -4.34562,-0.0498 z"
       id="path927"
       inkscape:export-xdpi="40"
       inkscape:export-ydpi="40"
       inkscape:export-filename="C:\Users\mrjos\Desktop\Desktop 2\Dad's Website\Adams_Electric\images\icons\facebook2.png" />
    <rect
       style="fill:#ffffff;fill-opacity:1;stroke:none;stroke-width:4.99998"
       id="rect837"
       width="39.309517"
       height="39.309517"
       x="34.295906"
       y="182.42436"
       inkscape:export-xdpi="40"
       inkscape:export-ydpi="40"
       inkscape:export-filename="C:\Users\mrjos\Desktop\Desktop 2\Dad's Website\Adams_Electric\images\icons\facebook2.png" />
    <rect
       style="fill:#ffffff;fill-opacity:1;stroke:none;stroke-width:4.99998"
       id="rect839"
       width="39.309517"
       height="39.309517"
       x="86.934517"
       y="182.42436"
       inkscape:export-xdpi="40"
       inkscape:export-ydpi="40"
       inkscape:export-filename="C:\Users\mrjos\Desktop\Desktop 2\Dad's Website\Adams_Electric\images\icons\instagram2.png" />
    <rect
       style="fill:#ffffff;fill-opacity:1;stroke:none;stroke-width:4.99998"
       id="rect841"
       width="39.309517"
       height="39.309517"
       x="139.57312"
       y="182.42436"
       inkscape:export-xdpi="40"
       inkscape:export-ydpi="40"
       inkscape:export-filename="C:\Users\mrjos\Desktop\Desktop 2\Dad's Website\Adams_Electric\images\icons\twitter2.png" />
    <path
       style="fill:#bc0c1e;stroke-width:0.999999;fill-opacity:1"
       d="m 152.91073,214.90897 c -0.0668,-0.002 -0.25938,-0.0104 -0.42804,-0.018 -2.82903,-0.12734 -5.63689,-0.93137 -8.12003,-2.32516 -0.35056,-0.19677 -0.92759,-0.54653 -0.91752,-0.55613 0.002,-0.002 0.076,0.004 0.16411,0.0139 0.75073,0.0827 1.73375,0.092 2.5103,0.0237 2.13816,-0.18809 4.19014,-0.89846 5.98441,-2.07175 0.26792,-0.1752 0.41306,-0.27697 0.69634,-0.48826 l 0.21539,-0.16066 -0.14512,-0.009 c -0.41566,-0.0254 -0.73946,-0.0669 -1.07147,-0.13741 -2.0849,-0.44258 -3.82661,-1.88712 -4.64355,-3.85126 -0.088,-0.21161 -0.19011,-0.49416 -0.18162,-0.50265 0.003,-0.003 0.0994,0.009 0.21436,0.0271 0.3694,0.0574 0.60154,0.0748 1.00119,0.075 0.45977,1.5e-4 0.74198,-0.0243 1.16275,-0.10092 0.22669,-0.0413 0.5047,-0.10654 0.5047,-0.1185 0,-0.005 -0.0589,-0.0222 -0.13096,-0.0383 -1.00772,-0.22401 -1.98141,-0.71844 -2.79506,-1.41929 -0.28766,-0.24778 -0.64316,-0.62374 -0.88375,-0.93462 -0.8368,-1.08126 -1.30702,-2.39231 -1.34799,-3.75845 -0.005,-0.15285 -0.004,-0.27791 1.5e-4,-0.27791 0.005,0 0.11264,0.0521 0.23987,0.1158 0.6905,0.34565 1.38849,0.55511 2.14499,0.64367 0.16832,0.0197 0.52664,0.0462 0.53391,0.0394 0.002,-0.002 -0.0629,-0.0504 -0.1442,-0.10786 -1.10749,-0.7826 -1.94997,-1.9211 -2.38353,-3.22098 -0.23331,-0.69952 -0.33605,-1.33551 -0.33542,-2.07633 7.5e-4,-0.83231 0.14319,-1.58551 0.44715,-2.36381 0.0727,-0.18618 0.36643,-0.79574 0.40842,-0.84759 l 0.0241,-0.0297 0.14654,0.17673 c 0.42936,0.5178 1.01113,1.13414 1.53809,1.62948 2.97364,2.79524 6.80983,4.52283 10.88768,4.90317 0.35052,0.0327 0.75796,0.0585 0.76783,0.0486 0.004,-0.004 -0.004,-0.0642 -0.019,-0.13322 -0.0902,-0.4217 -0.13192,-0.83486 -0.13251,-1.3137 -4.5e-4,-0.36865 0.0121,-0.56751 0.0562,-0.88803 0.23792,-1.73153 1.16295,-3.29413 2.56659,-4.33557 0.55417,-0.41118 1.20675,-0.74755 1.85914,-0.95831 1.62505,-0.52499 3.38529,-0.39115 4.91291,0.37356 0.60585,0.30328 1.12226,0.67214 1.62236,1.15881 l 0.19841,0.1931 0.22361,-0.0483 c 1.317,-0.28442 2.64443,-0.79864 3.78774,-1.46729 0.0488,-0.0285 0.0906,-0.05 0.093,-0.0476 0.008,0.008 -0.0998,0.30212 -0.18272,0.50161 -0.51027,1.22681 -1.4176,2.29944 -2.53839,3.00081 -0.0544,0.0341 -0.0974,0.0635 -0.0954,0.0654 0.002,0.002 0.084,-0.007 0.18228,-0.0204 1.10252,-0.14712 2.21796,-0.45004 3.25458,-0.88385 0.13187,-0.0552 0.24293,-0.10034 0.24681,-0.10034 0.0133,0 -0.21506,0.32583 -0.41636,0.59415 -0.66425,0.88537 -1.45137,1.69337 -2.33668,2.39867 -0.12215,0.0973 -0.27545,0.21553 -0.34067,0.2627 l -0.11859,0.0858 0.007,0.53665 c 0.0175,1.34337 -0.0985,2.57557 -0.36694,3.89585 -0.64786,3.1868 -2.12865,6.22547 -4.22185,8.66352 -0.42844,0.49903 -1.10645,1.19673 -1.56638,1.61189 -2.38796,2.15549 -5.19651,3.56515 -8.37162,4.20188 -0.91166,0.18282 -1.78998,0.2919 -2.84053,0.35278 -0.22867,0.0133 -1.29502,0.0253 -1.5269,0.0172 z"
       id="path843"
       inkscape:export-xdpi="40"
       inkscape:export-ydpi="40"
       inkscape:export-filename="C:\Users\mrjos\Desktop\Desktop 2\Dad's Website\Adams_Electric\images\icons\twitter2.png" />
    <path
       style="fill:#bc0c1e;stroke-width:0.999999;fill-opacity:1"
       d="m 101.51103,216.40599 c -0.78595,-0.0268 -2.038936,-0.13407 -2.485656,-0.21277 -1.8655,-0.32865 -3.24873,-1.02347 -4.42938,-2.22495 -1.25277,-1.27487 -1.96379,-2.90539 -2.1993,-5.04344 -0.13311,-1.20834 -0.1835,-3.87208 -0.1555,-8.22045 0.0323,-5.01327 0.0681,-5.62852 0.40698,-6.98599 0.74219,-2.97317 2.94403,-5.0502 6.00113,-5.66095 0.83702,-0.16723 1.458976,-0.22307 3.254516,-0.29221 1.9712,-0.0759 10.19447,-0.035 11.11024,0.0553 2.54839,0.25118 4.16112,0.93744 5.56835,2.3695 1.25963,1.28186 1.97902,2.94021 2.19999,5.07149 0.13463,1.29851 0.18293,3.85719 0.15465,8.1924 -0.0327,5.01431 -0.0686,5.63128 -0.40682,6.98599 -0.74328,2.97751 -2.93663,5.0465 -6.00114,5.66088 -1.37225,0.27511 -3.12463,0.34346 -8.47296,0.33049 -2.25291,-0.005 -4.2982,-0.0168 -4.5451,-0.0253 z m 10.94191,-2.65271 c 0.99722,-0.0747 1.44538,-0.14371 2.07615,-0.31957 0.94621,-0.2638 1.68717,-0.71145 2.33125,-1.40844 0.84741,-0.91699 1.23394,-1.96591 1.41135,-3.8299 0.10225,-1.07436 0.0997,-10.45137 -0.003,-11.86552 -0.11458,-1.57399 -0.27616,-2.3084 -0.69148,-3.14271 -0.2923,-0.58719 -0.52414,-0.89557 -1.02182,-1.35911 -0.92952,-0.86574 -1.97058,-1.25279 -3.84968,-1.43123 -1.07399,-0.10198 -10.45243,-0.0994 -11.86553,0.003 -1.573536,0.11432 -2.308216,0.27594 -3.142696,0.69134 -0.5872,0.29229 -0.89557,0.52414 -1.3591,1.02182 -0.86574,0.9295 -1.25276,1.97047 -1.43125,3.84968 -0.0526,0.55336 -0.0716,2.12607 -0.0705,5.83568 0.002,5.94185 0.047,6.92938 0.37277,8.13628 0.23892,0.88506 0.59813,1.55008 1.15763,2.14318 1.12399,1.1915 2.37532,1.61946 5.057366,1.72968 1.48818,0.0611 10.05027,0.0189 11.02879,-0.0544 z m -7.14671,-4.41354 c -0.91693,-0.15371 -1.96801,-0.57919 -2.84129,-1.15015 -0.5973,-0.39053 -1.60636,-1.40534 -2.00286,-2.01426 -0.42261,-0.64902 -0.617486,-1.04994 -0.854086,-1.75711 -0.25994,-0.77694 -0.36906,-1.46852 -0.36906,-2.33909 0,-2.04036 0.70763,-3.74546 2.155896,-5.19486 0.89157,-0.89227 1.68624,-1.3912 2.83765,-1.78161 0.79006,-0.26789 1.45039,-0.3739 2.32866,-0.37384 2.07041,1.1e-4 3.7658,0.69996 5.22291,2.15594 0.89515,0.89444 1.39966,1.69948 1.78289,2.84494 0.2685,0.8025 0.37263,1.45128 0.37256,2.32137 -10e-5,2.07042 -0.69995,3.7658 -2.15593,5.22291 -0.61921,0.6197 -1.22222,1.06498 -1.91515,1.41421 -0.50168,0.25284 -1.46801,0.56121 -2.05903,0.65706 -0.63946,0.10371 -1.86776,0.10101 -2.50316,-0.005 z m 2.22522,-2.57972 c 2.23456,-0.45809 3.8273,-2.40604 3.8273,-4.68089 0,-3.81334 -4.25045,-6.07643 -7.43398,-3.95813 -2.18177,1.45174 -2.76108,4.41727 -1.2937,6.62255 1.05518,1.5858 3.03238,2.39939 4.90038,2.01647 z m 6.33745,-10.68681 c -1.00552,-0.25137 -1.57401,-1.2873 -1.24167,-2.26264 0.12352,-0.36252 0.56263,-0.83093 0.92512,-0.98687 0.88752,-0.3818 1.95847,0.0752 2.2938,0.97886 0.39219,1.05687 -0.33286,2.19589 -1.46177,2.29639 -0.1673,0.0149 -0.39927,0.003 -0.51548,-0.0258 z"
       id="path845"
       inkscape:export-xdpi="40"
       inkscape:export-ydpi="40"
       inkscape:export-filename="C:\Users\mrjos\Desktop\Desktop 2\Dad's Website\Adams_Electric\images\icons\instagram2.png" />
    <path
       style="fill:#bc0c1e;stroke-width:0.999996;fill-opacity:1"
       d="m 43.293224,216.59446 c -1.56097,-0.21079 -2.76748,-1.06059 -3.47512,-2.44767 -0.0652,-0.12773 -0.1883,-0.48193 -0.27364,-0.78711 l -0.15517,-0.55488 v -10.74293 -10.74292 l 0.15517,-0.55488 c 0.23641,-0.84541 0.55247,-1.39745 1.13171,-1.97669 0.57924,-0.57924 1.13128,-0.8953 1.97669,-1.13171 l 0.55487,-0.15516 h 10.74293 10.74293 l 0.48443,0.13203 c 1.65758,0.45179 2.75019,1.5444 3.20198,3.20198 l 0.13203,0.48443 v 10.74292 10.74293 l -0.13203,0.48443 c -0.44336,1.62664 -1.50602,2.71234 -3.11019,3.17761 l -0.51923,0.1506 -4.26012,0.0202 -4.26013,0.0201 v -5.16075 -5.16075 h 1.70975 c 0.94036,0 1.70975,-0.0148 1.70975,-0.0328 0,-0.0181 0.0631,-0.422 0.1402,-0.89762 0.2586,-1.59505 0.4261,-2.68596 0.46311,-3.0162 l 0.0367,-0.3277 h -2.0344 -2.03441 l 0.0214,-1.61002 c 0.0202,-1.51893 0.0291,-1.63214 0.15727,-2.00123 0.17989,-0.51803 0.5489,-0.92697 1.03928,-1.15173 0.35502,-0.16272 0.37179,-0.16463 1.69787,-0.19407 l 1.33931,-0.0297 0.0151,-1.81096 c 0.0118,-1.4192 -3e-4,-1.81635 -0.057,-1.83588 -0.29314,-0.10134 -1.47913,-0.21138 -2.57968,-0.23937 -1.44966,-0.0368 -1.98634,0.01 -2.65501,0.23113 -0.947,0.31337 -1.43851,0.61094 -2.0753,1.25643 -0.5206,0.52772 -0.875,1.10655 -1.11528,1.82159 -0.3166,0.94216 -0.338,1.1608 -0.338,3.45274 v 2.11109 h -1.85223 -1.85223 v 2.13719 2.13719 h 1.85223 1.85223 v 5.15774 5.15775 l -4.03216,-0.007 c -2.21769,-0.004 -4.17322,-0.0265 -4.34562,-0.0498 z"
       id="path847"
       inkscape:export-xdpi="40"
       inkscape:export-ydpi="40"
       inkscape:export-filename="C:\Users\mrjos\Desktop\Desktop 2\Dad's Website\Adams_Electric\images\icons\facebook2.png" />
  </g>
</svg>
